<svg width="512" height="512" viewBox="0 0 512 512" fill="none" xmlns="http://www.w3.org/2000/svg">
<g clip-path="url(#clip0)">
<path d="M502.596 456.186H450.632L438.016 336.347L451.978 357.286L455.437 374.604C457.106 382.952 462.354 390.057 469.842 394.12C474.084 396.42 478.744 397.579 483.429 397.579C487.015 397.579 490.618 396.897 494.051 395.526C501.446 392.57 507.306 386.607 510.143 379.161C512.971 371.716 512.554 363.368 508.993 356.238L501.701 341.646C501.676 341.586 501.624 341.552 501.59 341.501C501.573 341.458 501.573 341.416 501.556 341.373L450.445 247.669C449.499 245.931 447.966 244.577 446.134 243.836L423.049 234.601C440.376 220.529 451.484 199.079 451.484 175.074C451.484 162.236 448.102 149.595 441.884 138.282L437.488 94.3091C451.203 88.4994 460.003 77.0931 460.003 64.3322C460.003 45.9918 441.798 30.9906 419.088 30.2835C410.033 14.5668 393.243 4.70227 374.817 4.70227C356.391 4.70227 339.601 14.5668 330.546 30.2835C307.836 30.9906 289.631 45.9918 289.631 64.3322C289.631 77.0931 298.431 88.4994 312.146 94.3091L307.75 138.282C301.532 149.595 298.15 162.236 298.15 175.074C298.15 199.079 309.258 220.529 326.593 234.593L303.508 243.827C302.145 244.372 300.944 245.267 300.024 246.417L271.274 282.357L236.535 254.569L227.258 239.108C225.682 236.475 223.672 234.244 221.5 232.208V209.148C221.5 198.057 214.353 188.686 204.463 185.16V149.518H212.981C227.071 149.518 238.537 138.052 238.537 123.962V72.8508C238.537 58.7611 227.071 47.2951 212.981 47.2951H178.907C164.817 47.2951 153.351 58.7611 153.351 72.8508V123.962C153.351 138.052 164.817 149.518 178.907 149.518H187.426V185.16C177.535 188.686 170.388 198.057 170.388 209.148V243.222C170.388 243.231 170.388 243.248 170.388 243.256C168.259 248.325 167.305 253.853 167.995 259.51C169.213 269.366 174.792 277.952 183.303 283.064L199.42 292.732L256.051 342.285C265.566 350.599 279.511 350.778 289.239 342.676L313.049 322.828L299.002 456.186H150.08L160.072 436.202C176.019 430.043 187.408 414.65 187.408 396.556V377.952C197.299 374.425 204.446 365.055 204.446 353.964C204.446 339.874 192.98 328.408 178.89 328.408H25.5557C11.466 328.408 0 339.874 0 353.964C0 365.055 7.14708 374.425 17.0371 377.952V396.556C17.0371 414.65 28.4265 430.043 44.3732 436.202L54.3655 456.186H8.51857C3.81632 456.186 0 460.003 0 464.705V498.779C0 503.481 3.81632 507.298 8.51857 507.298H502.596C507.298 507.298 511.114 503.481 511.114 498.779V464.705C511.114 460.003 507.298 456.186 502.596 456.186ZM187.408 132.481H178.89C174.196 132.481 170.371 128.656 170.371 123.962V72.8508C170.371 68.1571 174.196 64.3322 178.89 64.3322H187.408V132.481ZM493.753 363.845C495.21 366.758 495.38 370.047 494.222 373.096C493.063 376.137 490.755 378.489 487.731 379.698C484.553 380.967 480.984 380.763 477.968 379.127C474.953 377.492 472.823 374.621 472.15 371.256L469.952 360.259L489.52 355.369L493.753 363.845ZM436.96 258.513L481.325 339.848L463.759 344.235L433.808 299.308L421.439 252.303L436.96 258.513ZM418.262 311.371L433.51 456.186H316.133L331.372 311.371H418.262ZM334.763 294.334L347.319 246.587C347.66 246.715 348.009 246.808 348.35 246.928C350.062 247.558 351.783 248.163 353.546 248.674C354.219 248.87 354.901 249.023 355.574 249.194C357.201 249.62 358.828 250.029 360.489 250.344C361.324 250.506 362.167 250.599 363.002 250.727C364.544 250.966 366.077 251.221 367.644 251.374C368.743 251.477 369.851 251.485 370.95 251.545C372.244 251.613 373.514 251.741 374.817 251.741C376.12 251.741 377.39 251.613 378.684 251.545C379.792 251.485 380.891 251.477 381.99 251.374C383.557 251.23 385.09 250.974 386.632 250.727C387.467 250.599 388.31 250.506 389.145 250.344C390.806 250.029 392.433 249.611 394.06 249.194C394.733 249.015 395.415 248.87 396.088 248.674C397.851 248.163 399.58 247.567 401.284 246.928C401.625 246.8 401.974 246.715 402.315 246.587L414.88 294.334H334.763ZM306.668 64.3322C306.668 55.0981 318.373 47.2951 332.224 47.2951C332.718 47.2951 333.187 47.3547 333.664 47.4059L335.035 47.5336C338.622 47.7466 342.063 45.7447 343.511 42.3969C348.895 29.8491 361.187 21.7394 374.817 21.7394C388.447 21.7394 400.739 29.8491 406.131 42.3969C407.571 45.7447 411.064 47.8147 414.607 47.5336L415.979 47.4059C416.447 47.3547 416.916 47.2951 417.41 47.2951C431.261 47.2951 442.966 55.0981 442.966 64.3322C442.966 71.1386 436.083 77.6468 426.227 80.1683C422.146 81.2075 419.437 85.075 419.855 89.2661L425.034 140.999H324.6L329.771 89.2746C330.188 85.0835 327.479 81.216 323.399 80.1768C313.551 77.6468 306.668 71.1386 306.668 64.3322ZM315.187 175.074C315.187 169.298 316.047 163.557 317.7 158.036H431.925C433.587 163.557 434.447 169.298 434.447 175.074C434.447 198.721 420.57 219.14 400.569 228.775C398.635 229.703 396.659 230.53 394.657 231.237C394.563 231.271 394.469 231.305 394.376 231.339C381.683 235.777 367.934 235.777 355.241 231.339C355.148 231.305 355.054 231.271 354.96 231.237C352.958 230.53 350.991 229.703 349.048 228.775C329.064 219.14 315.187 198.721 315.187 175.074ZM204.446 64.3322H212.964C217.658 64.3322 221.483 68.1571 221.483 72.8508V123.962C221.483 128.656 217.658 132.481 212.964 132.481H204.446V64.3322ZM195.927 200.629C200.621 200.629 204.446 204.454 204.446 209.148V223.953C204.395 223.945 204.335 223.945 204.284 223.936C204.079 223.911 203.9 223.817 203.696 223.791C203.227 223.732 202.767 223.817 202.307 223.774C200.825 223.655 199.36 223.638 197.878 223.723C197.137 223.766 196.404 223.766 195.68 223.859C193.925 224.081 192.213 224.49 190.518 225.001C189.794 225.222 189.095 225.452 188.388 225.717C188.064 225.836 187.732 225.912 187.417 226.04V209.148H187.408C187.408 204.454 191.233 200.629 195.927 200.629ZM192.068 268.454C188.073 266.06 185.458 262.04 184.896 257.423C184.521 254.416 185.143 251.477 186.471 248.861C186.506 248.793 186.565 248.751 186.599 248.683C186.966 247.984 187.332 247.388 187.707 246.834C188.167 246.195 188.618 245.548 189.18 244.986C190.373 243.784 191.761 242.873 193.218 242.166C193.337 242.106 193.457 242.03 193.576 241.97C195.033 241.314 196.583 240.905 198.167 240.743C198.287 240.735 198.397 240.718 198.517 240.709C200.059 240.581 201.617 240.718 203.151 241.067C203.313 241.101 203.475 241.135 203.628 241.178C205.221 241.604 206.771 242.26 208.194 243.231C208.236 243.256 208.288 243.273 208.33 243.299C210.042 244.491 211.533 246.016 212.649 247.873L219.285 258.939L203.134 275.09L192.068 268.454ZM278.319 329.583C275.082 332.275 270.422 332.233 267.253 329.456L216.9 285.398L230.623 271.674L267.262 300.987C270.925 303.926 276.291 303.338 279.23 299.658L311.899 258.82L328.178 252.311L316.141 298.065L278.319 329.583ZM25.5557 362.482C20.862 362.482 17.0371 358.657 17.0371 353.964C17.0371 349.27 20.862 345.445 25.5557 345.445H178.89C183.584 345.445 187.408 349.27 187.408 353.964C187.408 358.657 183.584 362.482 178.89 362.482H25.5557ZM34.0743 396.556V379.519H170.371V396.556C170.371 410.646 158.905 422.112 144.816 422.112H59.63C45.5403 422.112 34.0743 410.646 34.0743 396.556ZM139.551 439.149L131.033 456.186H110.741V439.149H139.551ZM93.7042 439.149V456.186H73.413L64.8945 439.149H93.7042ZM494.077 490.261H17.0371V473.224H68.1485H136.297H306.668H442.966H494.077V490.261Z" fill="white"/>
<path d="M400.373 345.445H349.261C344.559 345.445 340.743 349.261 340.743 353.964V379.519C340.743 398.311 356.025 413.593 374.817 413.593C393.609 413.593 408.891 398.311 408.891 379.519V353.964C408.891 349.261 405.075 345.445 400.373 345.445ZM391.854 379.519C391.854 388.915 384.213 396.556 374.817 396.556C365.421 396.556 357.78 388.915 357.78 379.519V362.482H391.854V379.519Z" fill="white"/>
<path d="M110.741 260.259H93.7041V302.852H110.741V260.259Z" fill="white"/>
<path d="M153.334 277.296H136.297V311.371H153.334V277.296Z" fill="white"/>
<path d="M68.1485 277.296H51.1113V311.371H68.1485V277.296Z" fill="white"/>
<path d="M110.741 226.185H93.7041V243.222H110.741V226.185Z" fill="white"/>
<path d="M68.1485 243.222H51.1113V260.259H68.1485V243.222Z" fill="white"/>
<path d="M153.334 243.222H136.297V260.259H153.334V243.222Z" fill="white"/>
<path d="M502.596 456.186H450.632L438.016 336.347L451.978 357.286L455.437 374.604C457.106 382.952 462.354 390.057 469.842 394.12C474.084 396.42 478.744 397.579 483.429 397.579C487.015 397.579 490.618 396.897 494.051 395.526C501.446 392.57 507.306 386.607 510.143 379.161C512.971 371.716 512.554 363.368 508.993 356.238L501.701 341.646C501.676 341.586 501.624 341.552 501.59 341.501C501.573 341.458 501.573 341.416 501.556 341.373L450.445 247.669C449.499 245.931 447.966 244.577 446.134 243.836L423.049 234.601C440.376 220.529 451.484 199.079 451.484 175.074C451.484 162.236 448.102 149.595 441.884 138.282L437.488 94.3091C451.203 88.4994 460.003 77.0931 460.003 64.3322C460.003 45.9918 441.798 30.9906 419.088 30.2835C410.033 14.5668 393.243 4.70227 374.817 4.70227C356.391 4.70227 339.601 14.5668 330.546 30.2835C307.836 30.9906 289.631 45.9918 289.631 64.3322C289.631 77.0931 298.431 88.4994 312.146 94.3091L307.75 138.282C301.532 149.595 298.15 162.236 298.15 175.074C298.15 199.079 309.258 220.529 326.593 234.593L303.508 243.827C302.145 244.372 300.944 245.267 300.024 246.417L271.274 282.357L236.535 254.569L227.258 239.108C225.682 236.475 223.672 234.244 221.5 232.208V209.148C221.5 198.057 214.353 188.686 204.463 185.16V149.518H212.981C227.071 149.518 238.537 138.052 238.537 123.962V72.8508C238.537 58.7611 227.071 47.2951 212.981 47.2951H178.907C164.817 47.2951 153.351 58.7611 153.351 72.8508V123.962C153.351 138.052 164.817 149.518 178.907 149.518H187.426V185.16C177.535 188.686 170.388 198.057 170.388 209.148V243.222C170.388 243.231 170.388 243.248 170.388 243.256C168.259 248.325 167.305 253.853 167.995 259.51C169.213 269.366 174.792 277.952 183.303 283.064L199.42 292.732L256.051 342.285C265.566 350.599 279.511 350.778 289.239 342.676L313.049 322.828L299.002 456.186H150.08L160.072 436.202C176.019 430.043 187.408 414.65 187.408 396.556V377.952C197.299 374.425 204.446 365.055 204.446 353.964C204.446 339.874 192.98 328.408 178.89 328.408H25.5557C11.466 328.408 0 339.874 0 353.964C0 365.055 7.14708 374.425 17.0371 377.952V396.556C17.0371 414.65 28.4265 430.043 44.3732 436.202L54.3655 456.186H8.51857C3.81632 456.186 0 460.003 0 464.705V498.779C0 503.481 3.81632 507.298 8.51857 507.298H502.596C507.298 507.298 511.114 503.481 511.114 498.779V464.705C511.114 460.003 507.298 456.186 502.596 456.186ZM187.408 132.481H178.89C174.196 132.481 170.371 128.656 170.371 123.962V72.8508C170.371 68.1571 174.196 64.3322 178.89 64.3322H187.408V132.481ZM493.753 363.845C495.21 366.758 495.38 370.047 494.222 373.096C493.063 376.137 490.755 378.489 487.731 379.698C484.553 380.967 480.984 380.763 477.968 379.127C474.953 377.492 472.823 374.621 472.15 371.256L469.952 360.259L489.52 355.369L493.753 363.845ZM436.96 258.513L481.325 339.848L463.759 344.235L433.808 299.308L421.439 252.303L436.96 258.513ZM418.262 311.371L433.51 456.186H316.133L331.372 311.371H418.262ZM334.763 294.334L347.319 246.587C347.66 246.715 348.009 246.808 348.35 246.928C350.062 247.558 351.783 248.163 353.546 248.674C354.219 248.87 354.901 249.023 355.574 249.194C357.201 249.62 358.828 250.029 360.489 250.344C361.324 250.506 362.167 250.599 363.002 250.727C364.544 250.966 366.077 251.221 367.644 251.374C368.743 251.477 369.851 251.485 370.95 251.545C372.244 251.613 373.514 251.741 374.817 251.741C376.12 251.741 377.39 251.613 378.684 251.545C379.792 251.485 380.891 251.477 381.99 251.374C383.557 251.23 385.09 250.974 386.632 250.727C387.467 250.599 388.31 250.506 389.145 250.344C390.806 250.029 392.433 249.611 394.06 249.194C394.733 249.015 395.415 248.87 396.088 248.674C397.851 248.163 399.58 247.567 401.284 246.928C401.625 246.8 401.974 246.715 402.315 246.587L414.88 294.334H334.763ZM306.668 64.3322C306.668 55.0981 318.373 47.2951 332.224 47.2951C332.718 47.2951 333.187 47.3547 333.664 47.4059L335.035 47.5336C338.622 47.7466 342.063 45.7447 343.511 42.3969C348.895 29.8491 361.187 21.7394 374.817 21.7394C388.447 21.7394 400.739 29.8491 406.131 42.3969C407.571 45.7447 411.064 47.8147 414.607 47.5336L415.979 47.4059C416.447 47.3547 416.916 47.2951 417.41 47.2951C431.261 47.2951 442.966 55.0981 442.966 64.3322C442.966 71.1386 436.083 77.6468 426.227 80.1683C422.146 81.2075 419.437 85.075 419.855 89.2661L425.034 140.999H324.6L329.771 89.2746C330.188 85.0835 327.479 81.216 323.399 80.1768C313.551 77.6468 306.668 71.1386 306.668 64.3322ZM315.187 175.074C315.187 169.298 316.047 163.557 317.7 158.036H431.925C433.587 163.557 434.447 169.298 434.447 175.074C434.447 198.721 420.57 219.14 400.569 228.775C398.635 229.703 396.659 230.53 394.657 231.237C394.563 231.271 394.469 231.305 394.376 231.339C381.683 235.777 367.934 235.777 355.241 231.339C355.148 231.305 355.054 231.271 354.96 231.237C352.958 230.53 350.991 229.703 349.048 228.775C329.064 219.14 315.187 198.721 315.187 175.074ZM204.446 64.3322H212.964C217.658 64.3322 221.483 68.1571 221.483 72.8508V123.962C221.483 128.656 217.658 132.481 212.964 132.481H204.446V64.3322ZM195.927 200.629C200.621 200.629 204.446 204.454 204.446 209.148V223.953C204.395 223.945 204.335 223.945 204.284 223.936C204.079 223.911 203.9 223.817 203.696 223.791C203.227 223.732 202.767 223.817 202.307 223.774C200.825 223.655 199.36 223.638 197.878 223.723C197.137 223.766 196.404 223.766 195.68 223.859C193.925 224.081 192.213 224.49 190.518 225.001C189.794 225.222 189.095 225.452 188.388 225.717C188.064 225.836 187.732 225.912 187.417 226.04V209.148H187.408C187.408 204.454 191.233 200.629 195.927 200.629ZM192.068 268.454C188.073 266.06 185.458 262.04 184.896 257.423C184.521 254.416 185.143 251.477 186.471 248.861C186.506 248.793 186.565 248.751 186.599 248.683C186.966 247.984 187.332 247.388 187.707 246.834C188.167 246.195 188.618 245.548 189.18 244.986C190.373 243.784 191.761 242.873 193.218 242.166C193.337 242.106 193.457 242.03 193.576 241.97C195.033 241.314 196.583 240.905 198.167 240.743C198.287 240.735 198.397 240.718 198.517 240.709C200.059 240.581 201.617 240.718 203.151 241.067C203.313 241.101 203.475 241.135 203.628 241.178C205.221 241.604 206.771 242.26 208.194 243.231C208.236 243.256 208.288 243.273 208.33 243.299C210.042 244.491 211.533 246.016 212.649 247.873L219.285 258.939L203.134 275.09L192.068 268.454ZM278.319 329.583C275.082 332.275 270.422 332.233 267.253 329.456L216.9 285.398L230.623 271.674L267.262 300.987C270.925 303.926 276.291 303.338 279.23 299.658L311.899 258.82L328.178 252.311L316.141 298.065L278.319 329.583ZM25.5557 362.482C20.862 362.482 17.0371 358.657 17.0371 353.964C17.0371 349.27 20.862 345.445 25.5557 345.445H178.89C183.584 345.445 187.408 349.27 187.408 353.964C187.408 358.657 183.584 362.482 178.89 362.482H25.5557ZM34.0743 396.556V379.519H170.371V396.556C170.371 410.646 158.905 422.112 144.816 422.112H59.63C45.5403 422.112 34.0743 410.646 34.0743 396.556ZM139.551 439.149L131.033 456.186H110.741V439.149H139.551ZM93.7042 439.149V456.186H73.413L64.8945 439.149H93.7042ZM494.077 490.261H17.0371V473.224H68.1485H136.297H306.668H442.966H494.077V490.261Z" fill="white"/>
<path d="M400.373 345.445H349.261C344.559 345.445 340.743 349.261 340.743 353.964V379.519C340.743 398.311 356.025 413.593 374.817 413.593C393.609 413.593 408.891 398.311 408.891 379.519V353.964C408.891 349.261 405.075 345.445 400.373 345.445ZM391.854 379.519C391.854 388.915 384.213 396.556 374.817 396.556C365.421 396.556 357.78 388.915 357.78 379.519V362.482H391.854V379.519Z" fill="white"/>
<path d="M110.741 260.259H93.7041V302.852H110.741V260.259Z" fill="white"/>
<path d="M153.334 277.296H136.297V311.371H153.334V277.296Z" fill="white"/>
<path d="M68.1485 277.296H51.1113V311.371H68.1485V277.296Z" fill="white"/>
<path d="M110.741 226.185H93.7041V243.222H110.741V226.185Z" fill="white"/>
<path d="M68.1485 243.222H51.1113V260.259H68.1485V243.222Z" fill="white"/>
<path d="M153.334 243.222H136.297V260.259H153.334V243.222Z" fill="white"/>
</g>
<defs>
<clipPath id="clip0">
<rect width="512" height="512" fill="white"/>
</clipPath>
</defs>
</svg>
